<svg xmlns="http://www.w3.org/2000/svg" viewBox="0 0 611.4 494.98"><title>Asset 3</title><g id="Layer_2" data-name="Layer 2"><g id="Layer_1-2" data-name="Layer 1"><path d="M423.45,219.19c7.38-4.66,14.94-9.05,22.62-13.2,7.25-3.91,14.53-7.91,22.15-11,9.58-3.84,19.33-7.9,29.39-9.57,4.68-.78,10.93,2.95,15.27,6.23,5.87,4.43,11.74,6.25,19,6.55,4.82.19,9.65,3,14.24,5.18,7.34,3.44,14.22,8,21.77,10.77a22.61,22.61,0,0,0,3.65,1,150.51,150.51,0,0,0,15.21,1c8.05.12,18.32-.39,23.5-5.17a3,3,0,0,0,1.12-1.87c.24-2.48-4-4.93-7.88-6.64q-2.75-1.11-5.52-2.13c-10.53-3.81-21.23-7.16-31.76-11-7.81-2.84-15.51-6-23.16-9.28-1-.43-1.67-2.32-1.89-3.64-.07-.43,1.7-1.46,2.76-1.73,3-.78,6.2-1.13,9.21-2,6-1.7,12-3.62,18-5.45l1.86-.59c-.57-.45-1.1-1.23-1.7-1.29-10.27-1.11-20.54-2.23-30.83-3.14-6.25-.55-12.53-.64-18.79-1.13-8.88-.7-17.9-.82-26.57-2.58-8.44-1.72-16.54-5.16-24.76-7.92-10-3.35-20-6.67-29.87-10.35-.88-.32-1.73-3.94-1.11-4.6,4.57-4.76,9.61-9.06,14.32-13.68,6.19-6.09,12-12.63,18.38-18.46,7.25-6.58,15.32-12.26,22.46-18.94,6.34-5.93,11.6-13,17.87-19,7-6.68,14.63-12.63,21.83-19.08,5.56-5,11.07-10,16.24-15.41Q561.17,20,571.23,8.28c1.2-1.39,1.68-5.61,1-6-2.34-1.38-5.63-2.77-8-2.11A37.86,37.86,0,0,0,552.68,6c-13.86,9.89-27.26,20.44-41.31,30C496.15,46.45,480.37,56,464.88,66,453.88,73.07,443,80.39,432,87.4c-6.08,3.86-12.11,8.06-18.71,10.75-12.3,5-25,9-37.51,13.49-2.85,1-5.86,3.74-8.35,3.27-7.77-1.47-15.26-4.43-23-6.17-6.91-1.55-14-3-21-3.11-7.78-.15-15.83.28-23.32,2.19-6.88,1.75-14.12,4.69-19.42,9.2-4,3.43-5.24,10.16-7.81,15.37-.55,1.12-1.35,2.56-2.37,2.94-6.12,2.26-12.24,4.58-18.53,6.25-8.05,2.13-16.51,2.91-24.34,5.59C211.54,152.66,195.84,159,180,165a2,2,0,0,1-1.74-.22c-3.72-3.87-7.64-7.59-10.94-11.79s-5.09-9.46-8.83-12.89c-4.38-4-9.91-7-15.34-9.64-6-2.86-12.44-6.78-18.6-6.63-12.91.31-24.85,5.73-35.8,12.51A105.7,105.7,0,0,0,71.3,149.76c-5.89,5.65-11,12.12-16.19,18.47-2.59,3.18-3.27,8.84-9.55,6.1-.31-.13-.79.08-1.17.19-8.08,2.31-16.44,3.95-24.15,7.16-6.54,2.73-12.46,7.09-18.35,11.17-1.3.9-1.29,3.69-1.89,5.6,1.51.42,3.1,1.38,4.53,1.18,11.6-1.65,23.13-4.11,34.78-5.07a57.42,57.42,0,0,1,20.22,2.2c5,1.44,9.26,5.37,13.84,8.21,4.36,2.69,8.4,6.34,13.14,7.87,5.91,1.9,7.67,5.28,8.21,10.95.93,9.67.5,20.28,4.52,28.63,5.05,10.48,13.75,19.28,21.42,28.35,2.42,2.87,6.74,4.05,9.89,6.39,11.47,8.52,22.17,18.33,36.35,22.36,11.44,3.25,22.87,6.77,34.53,8.94,8,1.48,16.36,1.19,24.55,1,8.72-.17,17.43-1.39,26.16-1.59,4.77-.12,9.14,1.63,11,6.76,1.06,2.88,2.41,5.74,2.87,8.72.57,3.63.29,7.38.46,11.08.34,7.39,1.76,14.9.88,22.14a237.53,237.53,0,0,1-6.83,34.21,26.78,26.78,0,0,1-8.51,13c-2.84,2.3-8,2-12.21,2.26-17.71,1.11-35.42,2.29-53.15,2.9-13.09.46-26.21.2-39.32,0-3.5-.05-4.71.89-4.69,4.56q.24,33.6,0,67.19c0,3.22.85,4.25,4.17,4.25q72.83-.15,145.67-.07t145.9-.14c1.29,0,3.69-2,3.7-3.07q.33-36,0-72c0-1.23-2.58-3.52-3.87-3.46-11.48.53-22.94,1.7-34.43,2.24-10.25.48-20.53.46-30.79.54-10.48.09-21,.12-31.44-.06-2.22,0-4.4-1.17-6.63-1.63a16.89,16.89,0,0,0-4-.28c-3.75.11-7.5.33-11.25.42-.15,0-.24-.94-.53-1.33-.42-.57-1-1.48-1.49-1.5-5.5-.13-11-.14-16.5-.15-3,0-6.1-.09-9.12.15-5.93.46-11.84,1.19-17.77,1.64-.57,0-1.23-1.06-1.85-1.62a14.91,14.91,0,0,1,2.5-1.24c1.34-.38,2.74-.57,4.11-.84-.56-1.25-1.1-2.51-1.69-3.75-1.55-3.23-4.82-6.68-4.42-9.64,2.19-16.1,5.24-32.1,8.11-48.1.6-3.33,2.74-6.7,2.31-9.79-.6-4.36,1.48-10.19,5.85-11,1.79-.32,4.47,1.62,5.6.85,3.37-2.29,6.18-5.41,9.21-8.22.05,0,0-.16.06-.23,2.25-3.64,4.51-7.27,6.74-10.93.24-.39.59-1,.45-1.28-2.53-4.88.57-7.55,3.18-11.38,7.69-11.3,18.15-17.25,31.1-20.58,4.64-1.19,10.62-4.73,12.17-8.69,2.57-6.59,6.66-10.08,12.39-13.09,11.07-5.83,21.92-12.09,33-18,3.59-1.92,7.59-5,11.15-4.65,7,.6,13.94,2.79,20.61,5.16,2.73,1,4.41,4.6,7.07,6.16,3.32,1.95,7.84,2.21,10.65,4.6,9.35,8,18.32,16.42,27.13,25,5,4.89,8.76,11.32,14.29,15.4,9.25,6.8,17.46,13.59,18.39,26.11.16,2.19,2.28,4.23,3.49,6.34,1.54-1.65,3-3.39,4.69-4.91a2.22,2.22,0,0,1,2.14.17c3.79,3.95,7.28,8.21,11.32,11.88.86.78,3.58-.48,5.45-.8-.6-2.25-1.16-4.52-1.81-6.76-1.37-4.7-3.42-9.31-4-14.1-.48-3.93.75-8.06,1.19-12.1.1-1-.3-2.34.2-2.85s1.91-.49,2.89-.39c1.41.14,2.8.77,4.2.78a20,20,0,0,0,4.06-.74c-.84-1.34-1.41-3.49-2.58-3.89-9.19-3.15-18.47-6.06-27.78-8.83-5.18-1.54-12.14.41-13.81-7.63-.14-.66-2-1.63-2.71-1.42-7.37,2.07-11.81-3.15-16.21-7.07-10.31-9.18-20.44-18.63-29.87-28.68-6.62-7-13.7-11.07-23.47-9.51a11.59,11.59,0,0,1-4.07,0,32.08,32.08,0,0,1-4.35-1.52C422,222.69,422.15,220,423.45,219.19Z"/></g></g></svg>