<svg xmlns="http://www.w3.org/2000/svg" viewBox="0 0 521.13 600.5"><title>Asset 3</title><g id="Layer_2" data-name="Layer 2"><g id="Layer_2-2" data-name="Layer 2"><path d="M520.89,504.49c-.8-4.7-4.51-9.28-7.84-13.12-6.13-7.05-12.48-14.06-19.6-20-5.05-4.24-11.75-6.45-17.31-10.16-4.77-3.17-9-7.15-13.38-10.88-.49-.41-.35-1.55-.51-2.35a6.74,6.74,0,0,1,2.37,0c2.78,1.12,5.44,2.54,8.24,3.59,5.66,2.12,11.43,3.93,17,6.18,2.09.84,3.88,2.49,5.7,3.9,6.67,5.17,13.28,10.42,20,15.56a4.55,4.55,0,0,0,2.46.42,2.43,2.43,0,0,0,.3-1.61c-4.08-7.87-7.73-16-12.51-23.45-3.51-5.47-8.43-10.06-12.86-14.92s-8.72-10-13.69-14.25c-6.39-5.5-13.54-10.09-20.11-15.4-4.09-3.3-7.51-7.42-11.56-10.77-7.07-5.84-14.8-10.94-21.49-17.17-5.63-5.24-10.08-11.73-15.22-17.52-3.1-3.48-6.46-6.73-9.81-10C395,346.59,389,340.6,382.7,334.93,376.14,329,369,323.8,362.64,317.69c-4.35-4.21-7.76-9.41-11.54-14.21-6.81-8.67-13.68-17.29-20.35-26.07-3.87-5.09-7-10.81-11.14-15.59-7.35-8.39-15.19-16.36-23-24.31a83.75,83.75,0,0,0-11.71-10.34c-4.65-3.24-9.9-5.64-14.89-8.4-1.95-1.08-3.89-2.18-5.86-3.21-2.13-1.11-4.67-1.75-6.37-3.31-6.29-5.75-12.28-11.82-18.44-17.7-2.78-2.65-8.39-5.53-8.08-7.6.86-5.63-3.07-6.62-5.88-8.51-7.89-5.32-16.07-10.23-24.1-15.36a4.31,4.31,0,0,1-1.74-2c-1.74-5.2-2.61-10.84-5.18-15.57-2.95-5.42-7.53-9.93-11.09-15.06C176.69,121,171.49,110.21,163.6,102c-10-10.37-15.48-22.25-19-35.7a109.76,109.76,0,0,0-6.73-19.7,148.14,148.14,0,0,0-12.39-20.74c-5.89-8.4-12-16.73-22.88-19.64C99,5.3,96,2.25,92.44,1.49,82.49-.64,72.25-.8,62.76,3.1A275.81,275.81,0,0,0,33.7,17.44C29,20.06,26.82,24.17,28.29,30.6c.89,3.9.68,8,.47,12.18C18.44,43.94,6.7,62.53.4,83.9c-3.22,10.92,13.34-8.72,33.5-9.3,1,.29,1.93.57,2.27,1.21,1.48,2.78,2.2,6,3.48,8.85C42.51,91.13,46,97.35,48.34,104c2.09,6,4.53,12.44,4.09,18.49-1.07,14.81-3.76,29.49-5.71,44.24-1.62,12.27-2.8,24.61-4.78,36.83-2,12.52-5.38,24.84-7,37.4-.77,6.05,1,12.47,1.91,18.67.48,3.18,1.1,6.58,2.65,9.32,4.95,8.73,10.7,17,15.51,25.83,5.35,9.81,9.07,20.38,20.16,26.15,3.87,2,6,7.59,8.63,11.74,9.91,15.65,19.7,31.39,29.53,47.09,6.52,10.41,13.1,20.78,19.53,31.24,4.25,6.89,8.77,13.69,12.28,20.95a210.09,210.09,0,0,1,10,25.06,93,93,0,0,1,4.59,20.49c.36,3.85-2,7.95-3.12,11.94-1.46,5.18-2.58,10.49-4.48,15.5-2.33,6.16-5.64,12-7.93,18.13-3.28,8.82-3.57,9-12.78,6.61-5.43-1.42-10.64,1-10.35,6.42.39,7.38-5.09,7.72-8.81,8.75-6.16,1.69-12.89,1.19-19.2,2.49a22.59,22.59,0,0,0-10.45,5,22.5,22.5,0,0,0-4.19,5.57A65.67,65.67,0,0,0,68,564.27c-8,5.94-23.47,20.39-20.08,28.42,1.75,4.15,8,5.25,10.67,5.67,20.33,3.2,57.36,2.24,85.7.81h.47a66.33,66.33,0,0,0,6.7-.38c17.44-1,30.2-2,31.13-2.1,60.75-4.93,105.94,10.14,111.33-4.33,1.16-3.1,2-11.5-2.25-18.41a20.65,20.65,0,0,0-4-4.73l0,0-.26-.17a24.63,24.63,0,0,0-4.71-3.15,10,10,0,0,0-2.58-1.13,27.16,27.16,0,0,0-9.71-1.59,17.58,17.58,0,0,1-6.14-1.49c-3.29-1.67-5.24-5.78-8.36-8-6.86-4.89-13.79-9.84-21.25-13.69-8-4.12-10.31-10.86-9.68-18.57,1.08-13.38,2.8-26.74,5-40,1.29-7.87,9.34-12.67,16-9.92,8.28,3.43,16.4,7.34,24.3,11.57,5.95,3.19,8.83,2.26,9.71-4.31.33-2.46.15-5,.5-7.44.69-4.78,2.23-9.52,2.27-14.29.08-8.89,6.68-13.29,12-18.45,1.21-1.17,5.1-.75,7.08.26a132.65,132.65,0,0,1,14.82,9.11c6.18,4.26,12,9.06,18.21,13.23,10.2,6.82,20.71,13.2,30.9,20,5.07,3.41,9.47,7.87,14.69,11,2.74,1.62,6.92.67,9.86,2.1,3.88,1.87,7.25,4.84,10.72,7.51,3.92,3,4.13-.05,4.76-2.69.29-1.24.71-2.44,1.07-3.66a27.13,27.13,0,0,1,4.79,1.57c1.07.57,1.72,1.86,2.67,2.7,7.94,7.07,15.84,14.19,23.88,21.13q19.78,17.07,39.8,33.84c1.65,1.38,4.37,1.51,6.61,2.12,1.24.35,2.57.42,3.81.76,3.66,1,7.3,2.11,10.95,3.17.21-4.82,2.11-10.48.24-14.28-3.29-6.72-9-12.25-13.39-18.47-.45-.64.89-2.6,1.53-3.88a1.83,1.83,0,0,1,1.54.2c6.28,7.94,13.95,14,23.76,16.78,1.38.39,4.83-1.61,4.77-1.83-.92-3.47-2.39-6.79-3.46-10.24a61.94,61.94,0,0,1-1.32-6.83,20.66,20.66,0,0,0,3.55.51c.83,0,2.33-.42,2.39-.83C519.82,516.07,521.82,510,520.89,504.49ZM165,528.57c1.69-13.28,3.68-26.52,5.81-39.74.48-3,1.86-5.86,2.74-8.81,2.5-8.44,6.85-3.83,10.43-1.25,3.78,2.71,7,6.18,10.76,9,.81.61,3.11.15,4.09-.63,1.58-1.25,2.65-3.14,3.87-4.82.15-.2-.12-.71-.28-1.48-.48.8-.76,1.25-1.73,2.84.48-7.4-.1-13.83,1.58-19.61,1.46-5,5.46-9.31,8.41-13.87a1.8,1.8,0,0,1,1.62-.53,2.09,2.09,0,0,1,1.12,1.41c.84,5.32,1.94,10.63,2.29,16a90.42,90.42,0,0,1-.17,17.1c-1.1,8.51-2.11,17.24-4.92,25.26s-7.75,15.13-11.81,22.62a2.19,2.19,0,0,1-1.54,1c-9.72.06-19.45.2-29.15-.15C166.92,532.82,164.77,529.91,165,528.57Z"/></g></g></svg>