<svg xmlns="http://www.w3.org/2000/svg" viewBox="0 0 602.38 661.32"><title>Asset 1</title><g id="Layer_2" data-name="Layer 2"><g id="Layer_1-2" data-name="Layer 1"><path d="M490.36,0c11.49,2.3,23.06,4.27,34.44,7,7.05,1.72,14.46,3.58,20.52,7.32,6.39,4,12.94,9.29,16.61,15.64,6.89,11.92,15.9,20.34,28.35,25.85a29.53,29.53,0,0,1,11,8.57c3.56,4.59-2.51,4.74-4.37,5.62a173.86,173.86,0,0,1-24.11,9.78c-7,2.08-6.86,6.94-7.68,12.45-.84,5.67-3,11.17-4.68,16.7a32.14,32.14,0,0,1-3.13,7.49c-1.66,2.63-3.48,5.74-6,7.08-4.67,2.45-4.64,6.19-4.72,10.35A5,5,0,0,1,545.5,137c-5.81,5.83-3.1,12.8-2.8,19.46.42,9.26.77,18.52,1.21,27.78.21,4.43,1,8.89.65,13.26-.28,3.28-2.11,6.4-3.11,9.64-.42,1.33-.2,2.9-.78,4.13a26,26,0,0,1-3.2,4.68s-1.16-.83-1.84-1.17c-1.6-.82-3.23-1.58-4.85-2.36a34.74,34.74,0,0,0-1.12,5.24c-.22,3.49-1.07,7.33.07,10.39.95,2.59,4.33,4.28,6.68,6.32.09.07.88-.47.86-.51-.23-.54-.63-1-.85-1.55-1.1-2.74-3-5.51-2.94-8.22,0-2,2.73-3.91,4.24-5.86.6.53,1.76,1.09,1.72,1.57-.63,9.13-1.39,18.24-2.18,27.35,0,.46-.56,1.2-.93,1.25-1.86.26-1,.15-.87,2.53a48,48,0,0,1-1.13,14.27c-2.79,10.68-6.06,21.24-9.56,31.71C521.39,307,518,317.1,513.62,326.77c-2.71,6-7.17,11.3-10.84,16.91-.39.6-1.13,1.2-1.12,1.79.12,7-5.39,9.79-9.71,13.8-11.73,10.92-22.88,22.47-34.56,33.45-4,3.76-8.93,6.53-13.38,9.84-7.11,5.3-13.9,11.08-21.32,15.9-11.72,7.62-23.52,15.22-35.9,21.67-10.06,5.24-21,8.78-31.57,13.09a5.48,5.48,0,0,0-.91.63,3.94,3.94,0,0,0,1.11.73c7.41,1.57,14.89,2.9,22.25,4.69,7.12,1.72,14.08,4.12,21.21,5.81a202.13,202.13,0,0,0,20,3.75c5.85.78,11.8.8,17.69,1.23a13.49,13.49,0,0,1,4.41.84c7.7,3.4,11.2-4,16.07-6.81a151.39,151.39,0,0,0,26-18.89c4.66-4.15,8.63-2.84,13.26-1.93,13.38,2.66,26.77,5.26,40.14,8a24.64,24.64,0,0,1,4.07,1.62c-1.22,1.3-2.26,2.87-3.7,3.85-4.84,3.31-9.83,6.37-14.73,9.59s-9.85,6.61-14.8,9.88c-7.78,5.12-15.68,10.05-23.34,15.34a198.69,198.69,0,0,0-17.32,13.2c-1.33,1.16-1.19,4.36-1.21,6.62,0,8.83.12,17.65.12,26.47,0,.28-1.1.43-1.38.84-1,1.47-1.52,3.31-2.73,4.51-4.22,4.14-8.51,8.23-13.07,12-1.19,1-3.48.6-5.26.84,1.14-1.55,1.95-3.63,3.47-4.58,6-3.74,7.55-10,9.47-16,.1-.31-.5-1.13-.93-1.28-4.79-1.65-5.9-6-3.36-10.65,1.49-2.73,1.84-6.09,2.67-9.18a3.11,3.11,0,0,0-.5-.21c-1.41,2.89-2.23,6.31-4.31,8.57-3.3,3.61-7.38,6.51-11.29,9.51-.31.24-2.11-.89-2.65-1.75-.29-.45.57-1.69,1-2.54.51-1.05,1.1-2.06,1.66-3.09a15.76,15.76,0,0,0-3.08,1.52c-3.29,2.58-6.55,5.22-9.71,8a17.15,17.15,0,0,0-2.28,3.06l4.13,2.63,2.79,1.74c-.9.8-1.67,1.94-2.72,2.33-1.46.55-3.3,1.13-4.67.7-7.57-2.39-8.19,3.5-10.09,8-.95,2.26-1.81,4.81-3.5,6.38-.77.72-3.43-.65-5.25-.95-2.34-.39-5.37-1.75-6.94-.79-6.51,4-12.59,8.67-18.81,13.13-4.76,3.41-7.42,6.81-5.11,13.73,1.63,4.86,3.14,11.26-2.19,16.37-2.14,2-2.21,6.11-3.94,8.79a32.69,32.69,0,0,1-7.36,8.38c-2.26,1.72-5.52,2.12-8.36,3.05-.3.1-.72-.16-1.09-.25a7.37,7.37,0,0,1,.65-1.08c2.94-3.59,6.07-7,8.76-10.8,1.09-1.53,1.93-5.33,1.69-5.44-4.06-1.81-9-5.37-12.37-4.27a87.14,87.14,0,0,0-23,11.73C319,615.6,313.58,622.36,307.24,628c-1.07.94-3.63.52-5.43.25q-21.46-3.26-42.89-6.75a10.12,10.12,0,0,1-2.62-1.29c.64-.64,1.24-1.33,1.94-1.91,7.54-6.29,15-12.68,22.68-18.8,8.29-6.6,16.89-12.83,25.09-19.54,1.25-1,.8-3.91,1.64-5.7,1.74-3.7,3.88-7.21,5.75-10.85,2.64-5.12,5.27-10.25,7.73-15.45,3.22-6.81-4.4-8.71-6.33-13.24A64.47,64.47,0,0,0,306.68,521c-5-6.59-10.69-12.7-16-19.08a21,21,0,0,1-3.82-5.54c-2.33-6.09-7.55-8-13.86-7.53-6.71.51-13.57-1.33-20.39-1.82a29.83,29.83,0,0,0-9.29.66c-11,2.76-22.19,5.12-32.78,9.06-8.73,3.24-16.69,8.55-25,12.86-2.53,1.3-5.43,2-7.77,3.54-4.32,2.86-8.22,6.35-12.56,9.19-2.21,1.44-5.25,1.62-7.43,3.08-5.75,3.84-11,8.37-16.87,12.06-6.38,4-13.58,6.87-19.65,11.28-7,5.1-13.17,11.32-19.64,17.11-7.81,7-15.71,13.9-23.27,21.15-5.9,5.65-11.34,11.79-17,17.67C56.21,609.92,50.93,615,46,620.43c-6.72,7.46-12.91,15.42-19.83,22.68-5.07,5.31-10.91,9.89-16.51,14.67-1.71,1.46-4,3.78-5.62,3.51-4.69-.77-5.24-5.84-2.11-11.45,1-1.87.63-4.48,1.37-6.59a17.43,17.43,0,0,1,3.17-5.64c11.3-12.78,22.77-25.43,34.09-38.2,4.16-4.71,8-9.71,12.14-14.43,3.06-3.49,6.38-6.76,9.61-10.11C75,561.74,88,549,100.05,535.3c4.35-4.94,5.77-12.35,9.43-18,2.92-4.55,7.24-8.2,10.86-12.31a6.19,6.19,0,0,0,.72-2.21c-.86,0-2-.25-2.55.18-5.54,4.41-10.94,9-16.47,13.4a47.35,47.35,0,0,1-6.91,4.59c-.58.31-2.74-.87-2.71-1.06.92-4.32,1-9.24,3.33-12.75,3.85-5.93,9-11.08,13.77-16.35,4-4.33,8.34-8.25,12.34-12.53,2.67-2.86,5-6,7.47-9.07,6.53-8.05,12.94-16.2,19.6-24.14,5.35-6.38,11.08-12.44,16.49-18.78a109.25,109.25,0,0,0,9.84-12.63c2-3.23,2.68-7.29,4.37-10.78.94-1.95,2.9-3.37,4.11-5.22,4.34-6.61,8.34-13.46,12.87-19.93,9.07-13,18.44-25.75,27.62-38.64,4.92-6.9,9.47-14.08,14.61-20.8,8.39-11,17.41-21.49,25.64-32.58,5.94-8,10.91-16.73,16.56-25,5.21-7.62,10.72-15,16.13-22.53q6.69-9.27,13.45-18.5c2.75-3.79,5.5-7.59,8.28-11.36,5.34-7.25,10.59-14.57,16.09-21.7,5.39-7,11-13.77,16.61-20.61,9.31-11.42,18-23.48,28.17-34.06C391.28,120,394,105.07,397.64,90.11c2.29-9.36,4.54-19,8.81-27.52C410.13,55.25,416.3,49,422,42.87a278,278,0,0,1,22.52-22c4.4-3.78,10.14-6,15.23-9,4-2.37,7.83-5.27,12.08-7.15,4-1.79,8.5-2.71,12.85-3.72,1.74-.41,3.66-.07,5.5-.07Zm-84,488.34c-1.93-1.38-3.27-2.77-4.91-3.47-10.73-4.58-21.29-9.72-32.36-13.28-9.9-3.18-20.45-4.32-30.61-6.79-13.75-3.35-26.29-1.82-36.89,8.21-3.92,3.7-5.75,8.82-2.82,13.49,3.36,5.34,8,9.92,12.28,14.65,3.72,4.1,8,7.72,11.52,12,3,3.63,5.15,7.94,7.84,11.83,4.9,7.09,11.92,9.91,20.33,9.57a39.88,39.88,0,0,0,5.84-.75c1.29-.23,2.51-.84,3.8-1.06,1.46-.25,3.29.24,4.4-.46,5.22-3.3,10.34-6.76,15.29-10.44,3.47-2.58,6.21-6.37,9.95-8.31C400.05,508.3,401.38,498.08,406.34,488.34Zm91-23.8c-.47-.5-.8-.87-.82-.86-1.6,1.28-3.18,2.59-4.76,3.9l.91,1.1Z"/></g></g></svg>