<svg xmlns="http://www.w3.org/2000/svg" viewBox="0 0 317 547.06"><title>Asset 1</title><g id="Layer_2" data-name="Layer 2"><g id="Layer_1-2" data-name="Layer 1"><path d="M317,365.34c-.57-7.8-.14-15.67-.14-23.51h0c0-8.48.07-17-.09-25.44,0-1.27-1.12-3.58-1.85-3.63-9.91-.67-19.84-1.06-29.78-1.42-2.91-.11-6.54,1.22-8.58-.09-3.15-2-7.31-3.35-7.44-9.15-.23-9.9-2.1-19.77-3.17-29.66-.15-1.31.61-2.72.47-4-.5-4.77-1.22-9.51-1.82-14.27a13.67,13.67,0,0,1,.07-1.91c.4.37.77,1,1.19,1a10.43,10.43,0,0,0,3.29-.14c.44-4.26.8-8.53.88-12.81.09-5.09-.16-10.19-.1-15.28,0-.63,1.06-1.24,1.63-1.85,1.37,2.74,2.76,5.46,4.08,8.22a43.62,43.62,0,0,0,2.3,4.94c.2.33,2.49,0,2.65-.46a13,13,0,0,0,.78-4.91c-.06-1.71-.76-3.39-1-5.11-1-8.17-1.92-16.34-2.91-24.51-.91-7.38-1.92-14.74-2.81-22.12A79.66,79.66,0,0,0,259.17,140c-5.72-7.53-12.94-14-20-20.42-7.58-7-9-16.35-12.1-25.39-7.3-21.4-14.58-42.92-23.81-63.52-6.74-15-17.58-28.15-35.93-29.4C149.25.06,130.94-.52,112.83.59c-13.64.83-24.74,9.34-33.65,19.29C70,30.12,61.27,40.82,59.17,55.49c-1.46,10.22-4.86,20.14-7,30.29-.78,3.79-1.39,8.15-.3,11.7,3.18,10.33,2.69,20.34-.41,30.45-.24.78-.38,1.58-.57,2.38a6,6,0,0,1,1.93-1.13,6.7,6.7,0,0,1,3.12.28,3.18,3.18,0,0,1-.15,2.41,47.42,47.42,0,0,1-3.75,4.53,6.18,6.18,0,0,1-1.44,1.31c-1.91,1.16-4.16,1.95-5.7,3.47-.86.84-.66,2.84-.77,4.33-1,12.43-2.86,24.88-2.54,37.27.24,9.16-7.62,16.73-2.85,27.06,2.33,5.06,2.09,13.79-4.69,18.75-.24.18-.24.8-.23,1.21A30.51,30.51,0,0,1,34,233c-.06.82-.47,1.62-.6,2.45,0,.1.79.25,1.11.5,1.17.9,3,1.67,3.3,2.82.63,2.43.31,2.5,1.9,2.89.14,0,.17.51.23.78,1,4.89,1.71,9.84,3,14.64,1.64,6.06,3.73,12,5.65,18a.79.79,0,0,0,.59.43,2.83,2.83,0,0,0,.93-.31,18,18,0,0,1,.41,3.22c0,.27-1.19.86-1.53.69-4.7-2.39-7.7.24-11.68,2.54-3.77,2.19-9.11,1.77-13.78,2.23-6.75.67-13.55,1-20.28,1.75-1.18.14-3.09,1.91-3.1,2.95C0,303.06,0,317.62.07,332.18c0,1,.71,2.71,1.41,2.9,4,1.1,8.11,2.32,12.22,2.55,5.23.3,10.53-.74,15.75-.42s10.28,1.82,15.46,2.33c1.66.17,3.47-1.68,5.22-1.68,4.74,0,9.55,1.13,14.2.63a19,19,0,0,1,14.8,4.15c.81.64,2.63.59,3.74.19,7.11-2.5,13.09-1.2,16.78,5.58,4,7.39,7.08,15.31,11.23,22.62s9,13.88,13.53,20.83c1.53,2.35,2.63,5,4.33,7.19,2.87,3.71,6.53,6.88,9,10.81,2.74,4.39,3.31,10.8,6.92,13.82,8.82,7.37,9.41,17.36,11.35,27.15,1.67,8.41,3.58,16.76,5.1,25.19,1,5.74.83,11.81,2.57,17.29,2,6.32,5.53,12.15,8.41,18.19,1,2.12,1.66,4.65,3.22,6.25,3.92,4,6.51,10.37,14.32,8.51,1.3-.32,4,2.43,5,4.32,2.74,5.23,4.81,10.82,7.48,16.1.31.62,2.71.32,4.12.2,1.81-.15,3.59-.71,5.39-.77s4.64,1,5,.32c3.55-5.86,6.79-11.93,9.87-18.06,2.27-4.53,3.91-9.39,6.32-13.83,2.2-4.08,5.27-7.68,7.5-11.75.68-1.22-.62-3.39-.25-5,.72-3.09,2.54-6,2.9-9.1.9-7.82,1.39-15.7,1.76-23.56.62-13,1-26,1.53-39,.16-3.89,1.1-7.82.7-11.63-.63-5.87-.65-6.69,3.31-8.45a2.1,2.1,0,0,0,1-1.27c.76-3,1.37-6.08,2.14-9.1a9.81,9.81,0,0,1,1.45-3.84c2.64-3.13,5.59-6,8.27-9.11.42-.49-.11-1.7,0-2.54.31-1.8.75-3.58,1.18-5.35a1.1,1.1,0,0,1,.54-.68c1.34-.52,2.71-.95,4-1.49.59-.23,1.07-.74,1.66-1,7.4-2.65,13.55,2.17,20.32,3.35a56,56,0,0,0,11.93.6c2.21-.1,4.34-1.42,6.57-1.93C314,372.7,317.4,371.35,317,365.34Z"/></g></g></svg>