<svg version="1.1" id="Layer_1" xmlns="http://www.w3.org/2000/svg" xmlns:xlink="http://www.w3.org/1999/xlink" x="0px" y="0px"
	 viewBox="0 0 48.1 48" style="enable-background:new 0 0 48.1 48;" xml:space="preserve">
<title>Created by Hare Krishna from the Noun Project</title>
<path d="M0.4,1.8c-0.4-0.3-0.5-1-0.2-1.4s1-0.5,1.4-0.2c0,0,0.1,0.1,0.1,0.1L24,20.4L46.4,0.2c0.4-0.3,1.1-0.3,1.4,0.2
	c0.3,0.4,0.3,1-0.1,1.3L24.7,22.5c-0.4,0.3-1,0.3-1.3,0L0.4,1.8z M46.4,25.4L24,45.6L1.7,25.5c-0.4-0.4-1-0.3-1.4,0.1
	C-0.1,26,0,26.7,0.4,27l0,0l23,20.7c0.4,0.3,1,0.3,1.3,0l23-20.8c0.4-0.3,0.5-1,0.2-1.4S46.9,25,46.4,25.4
	C46.4,25.4,46.4,25.4,46.4,25.4L46.4,25.4z"/>
</svg>
