<?xml version="1.0" encoding="utf-8"?>
<!-- Generator: Adobe Illustrator 22.0.1, SVG Export Plug-In . SVG Version: 6.00 Build 0)  -->
<svg version="1.1" id="Layer_1" xmlns="http://www.w3.org/2000/svg" xmlns:xlink="http://www.w3.org/1999/xlink" x="0px" y="0px"
	 viewBox="0 0 90 90" style="enable-background:new 0 0 90 90;" xml:space="preserve">
<path d="M86.1,27.8c-8.9,1.8-16.6-0.8-23,0c-4.8,0.6-11.1,3.7-14,5.2c-1.4-4.8-1.1-9.2-1.1-9.2c1.4-1.1,3.3-0.4,3.3-0.4
	c-0.9-1.8-3.4-1.8-3.4-1.8c-1.6-1.2-5.7-1-6.8,2.5c-0.7,2.2-0.5,6.3-0.3,8.9c-2.8-1.5-9.3-4.7-14.1-5.2c-6.4-0.8-14,1.8-23,0
	C-5.1,26,2.1,32.6,15.4,34c0,0-3.6,1.6-10.7,0.7c-7.1-0.9,2.5,5,12.2,5.8c0,0-3.6,1.5-7.8,1.8c-4.2,0.3,3.3,4.1,12.9,2.4
	c0,0-1.1,1.5-4.4,2.9s-1.2,2.3,5.7,0.7c7-1.6,11.7-5.8,17.6-3.7c0,0,0.9,1.3,0,4.1s-5.4,8.7-5.4,15.9c0,7.3,2.3,4.5,3.5-2.1
	c0,0,0.6,5.1,2.1,5.1s1.6-6.7,1.6-6.7s0.7,4.7,2.3,4.7s2.3-4.7,2.3-4.7s0.1,6.7,1.6,6.7s2.1-5.1,2.1-5.1c1.2,6.7,3.5,9.4,3.5,2.1
	S49.9,51.5,49,48.8s0-4.1,0-4.1c5.9-2.2,10.6,2.1,17.6,3.7s9.1,0.6,5.7-0.7s-4.4-2.9-4.4-2.9c9.6,1.7,17.1-2,12.9-2.4
	s-7.8-1.8-7.8-1.8c9.7-0.9,19.3-6.7,12.2-5.8C78.2,35.6,74.6,34,74.6,34C87.9,32.6,95.1,26,86.1,27.8z"/>
</svg>
